<svg width="33" height="33" viewBox="0 0 33 33" fill="none" xmlns="http://www.w3.org/2000/svg">
<path d="M16.5 33C25.6127 33 33 25.6127 33 16.5C33 7.3873 25.6127 0 16.5 0C7.3873 0 0 7.3873 0 16.5C0 25.6127 7.3873 33 16.5 33Z" fill="#FC383D"/>
<path d="M33 16.5C33 16.1248 32.9863 15.7527 32.9616 15.3837L26.1104 8.51806C25.3221 7.70157 24.2184 7.19149 23.0008 7.19149H9.99919C7.61868 7.19149 5.67097 9.1392 5.67097 11.5197V19.398C5.67097 20.6168 6.18202 21.7213 7 22.5095L9.46011 24.9702V26.6836L15.7592 32.9827C16.0049 32.9935 16.2517 33 16.5 33C25.6127 33 33 25.6127 33 16.5Z" fill="#D21B20"/>
<path d="M23.0008 7.19149H9.99919C7.61868 7.19149 5.67097 9.1392 5.67097 11.5197V19.398C5.67097 21.5959 7.33174 23.4236 9.46011 23.6912V26.6836L14.019 23.7262H23.0007C25.3813 23.7262 27.329 21.7785 27.329 19.3979V11.5196C27.329 9.13913 25.3813 7.19149 23.0008 7.19149Z" fill="white"/>
<path d="M27.329 11.5196V19.3979C27.329 21.7785 25.3813 23.7262 23.0007 23.7262L16.5 23.7265V7.19168L23.0008 7.19149C25.3813 7.19149 27.329 9.13913 27.329 11.5196Z" fill="#FFD3D4"/>
<path d="M17.9554 14.373H15.0453V20.8512H17.9554V14.373Z" fill="#171F2C"/>
<path d="M17.9554 14.373H16.5V20.8512H17.9554V14.373Z" fill="#171F2C"/>
<path d="M16.5 13.5648C17.4999 13.5648 18.3105 12.7542 18.3105 11.7543C18.3105 10.7544 17.4999 9.94383 16.5 9.94383C15.5001 9.94383 14.6895 10.7544 14.6895 11.7543C14.6895 12.7542 15.5001 13.5648 16.5 13.5648Z" fill="#171F2C"/>
<path d="M18.3105 11.7543C18.3105 12.7542 17.4999 13.5648 16.5 13.5648V9.94383C17.4999 9.94383 18.3105 10.7544 18.3105 11.7543Z" fill="#171F2C"/>
</svg>
